<svg xmlns="http://www.w3.org/2000/svg" width="244" height="68" viewBox="0 0 244 68"><g data-name="mecanics 1 text" fill="#fff"><g data-name=",,"><path data-name="Path 1376" d="M145.631 44.958c-.588 0-1.513-.609-1.046-1.278.338-.486 1.049-.491 1.489-.832a2.067 2.067 0 0 0 .841-1.661 2.5 2.5 0 0 0-.495-1.4c-.229-.329-.965-.673-.576-1.062a2.189 2.189 0 0 1 1.007-.368 2.242 2.242 0 0 1 .736-.057c1.161.154 1.894 1.833 1.894 2.849a3.528 3.528 0 0 1-1.836 3.118 4.229 4.229 0 0 1-2.014.691z"/><path data-name="Path 1377" d="M73.268 44.958c-.588 0-1.514-.609-1.046-1.278.338-.486 1.049-.491 1.49-.832a2.067 2.067 0 0 0 .841-1.661 2.5 2.5 0 0 0-.495-1.4c-.229-.329-.965-.673-.576-1.062a2.19 2.19 0 0 1 1.007-.368 2.243 2.243 0 0 1 .736-.057c1.161.154 1.893 1.833 1.893 2.849a3.528 3.528 0 0 1-1.836 3.118 4.23 4.23 0 0 1-2.014.691z"/></g><text data-name="Poti câstiga" transform="translate(122 36)" font-size="36" font-family="AveriaSansLibre-Bold, Averia Sans Libre" font-weight="700"><tspan x="-95" y="0">Poti câstiga</tspan></text><text data-name="premii pentru o iarnă de vis!" transform="translate(0 47)" font-size="16" font-family="AveriaSansLibre-Bold, Averia Sans Libre" font-weight="700"><tspan x="20" y="16">premii pentru o iarnă de vis!</tspan></text></g></svg>